name Walk1.mot
datacolumns 19
datarows 12
range 1.95700000 1.96800000
endheader

                time	   L_ground_force_vx	   L_ground_force_vy	   L_ground_force_vz	   L_ground_force_px	   L_ground_force_py	   L_ground_force_pz	   R_ground_force_vx	   R_ground_force_vy	   R_ground_force_vz	   R_ground_force_px	   R_ground_force_py	   R_ground_force_pz	   L_ground_torque_x	   L_ground_torque_y	   L_ground_torque_z	   R_ground_torque_x	   R_ground_torque_y	   R_ground_torque_z	
          1.95700000	          2.90552300	        706.13677199	         43.25074513	         -0.26016302	          0.00000000	         -0.03675927	         -0.05495744	          0.57431395	          0.03017865	          0.00012694	          0.00000000	          0.00011793	          0.00000000	          0.67220902	          0.00000000	          0.00000000	         -0.00600877	          0.00000000	
          1.95800000	          3.26546119	        707.18238552	         43.27688536	         -0.25979751	          0.00000000	         -0.03672833	         -0.05728926	          0.58468694	          0.03061641	          0.00012530	          0.00000000	          0.00011602	          0.00000000	          0.68073595	          0.00000000	          0.00000000	         -0.00580794	          0.00000000	
          1.95900000	          3.63082887	        708.23697275	         43.29926484	         -0.25943389	          0.00000000	         -0.03669595	         -0.05960117	          0.59360913	          0.03096841	          0.00012298	          0.00000000	          0.00011346	          0.00000000	          0.68886719	          0.00000000	          0.00000000	         -0.00556446	          0.00000000	
          1.96000000	          4.00179428	        709.30069637	         43.31777302	         -0.25907224	          0.00000000	         -0.03666210	         -0.06188177	          0.60090886	          0.03122522	          0.00011995	          0.00000000	          0.00011019	          0.00000000	          0.69659221	          0.00000000	          0.00000000	         -0.00527538	          0.00000000	
          1.96100000	          4.37853227	        710.37371097	         43.33230649	         -0.25871264	          0.00000000	         -0.03662678	         -0.06411872	          0.60640522	          0.03137694	          0.00011614	          0.00000000	          0.00010616	          0.00000000	          0.70390129	          0.00000000	          0.00000000	         -0.00493765	          0.00000000	
          1.96200000	          4.76122309	        711.45616385	         43.34276895	         -0.25835517	          0.00000000	         -0.03658998	         -0.06629874	          0.60990794	          0.03141317	          0.00011149	          0.00000000	          0.00010131	          0.00000000	          0.71078565	          0.00000000	          0.00000000	         -0.00454815	          0.00000000	
          1.96300000	          5.15005100	        712.54819488	         43.34907102	         -0.25799994	          0.00000000	         -0.03655168	         -0.06840753	          0.61121728	          0.03132304	          0.00010596	          0.00000000	          0.00009560	          0.00000000	          0.71723760	          0.00000000	          0.00000000	         -0.00410366	          0.00000000	
          1.96400000	          5.54520272	        713.64993533	         43.35113012	         -0.25764701	          0.00000000	         -0.03651189	         -0.07042976	          0.61012401	          0.03109517	          0.00009947	          0.00000000	          0.00008896	          0.00000000	          0.72325046	          0.00000000	          0.00000000	         -0.00360093	          0.00000000	
          1.96500000	          5.94686597	        714.76150560	         43.34887028	         -0.25729648	          0.00000000	         -0.03647058	         -0.07234904	          0.60640940	          0.03071770	          0.00009196	          0.00000000	          0.00008134	          0.00000000	          0.72881848	          0.00000000	          0.00000000	         -0.00303661	          0.00000000	
          1.96600000	          6.35522810	        715.88301219	         43.34222188	         -0.25694844	          0.00000000	         -0.03642776	         -0.07414788	          0.59984519	          0.03017830	          0.00008338	          0.00000000	          0.00007268	          0.00000000	          0.73393679	          0.00000000	          0.00000000	         -0.00240730	          0.00000000	
          1.96700000	          6.77047497	        717.01454484	         43.33112143	         -0.25660298	          0.00000000	         -0.03638342	         -0.07580764	          0.59019370	          0.02946414	          0.00007366	          0.00000000	          0.00006290	          0.00000000	          0.73860129	          0.00000000	          0.00000000	         -0.00170958	          0.00000000	
          1.96800000	          7.19278995	        718.15617442	         43.31551126	         -0.25626017	          0.00000000	         -0.03633756	         -0.07730857	          0.57720790	          0.02856193	          0.00006273	          0.00000000	          0.00005197	          0.00000000	          0.74280882	          0.00000000	          0.00000000	         -0.00093996	          0.00000000	
